<svg width="190" height="49" viewBox="0 0 190 49" fill="none" xmlns="http://www.w3.org/2000/svg">
<g clip-path="url(#clip0_5914_22925)">
<path d="M44.2652 48.8159C36.7462 48.8159 30.2722 46.5433 25.5415 42.2464C21.1791 38.285 18.6746 32.8968 18.4346 27.0094C16.6694 20.7591 17.4715 15.0871 20.819 10.1409C23.3481 6.40602 28.7444 1.95359 36.3043 0.66861C38.9015 0.226642 41.3705 0.00292969 43.6404 0.00292969C47.9755 0.00292969 55.4972 0.914148 60.1733 6.6079C62.8824 6.95984 65.0104 7.31996 65.8889 7.53549C69.2937 8.37032 71.4571 10.7275 71.6699 13.8431C71.9237 17.5562 68.969 21.3866 66.2981 23.7819C66.9556 30.5288 65.5069 36.4162 62.124 40.5795C57.8052 45.8913 51.4622 48.8159 44.2624 48.8159H44.2652Z" fill="#00EE36"/>
<path d="M23.2581 23.8771C23.4627 22.1774 24.6331 17.9378 28.2561 14.4621C31.2353 11.6029 35.8706 9.25941 42.9884 9.2676C58.9375 9.28397 61.2073 21.4436 61.2073 21.4436C61.7202 24.1772 62.9015 32.149 58.4682 37.6C55.3035 41.4931 50.4446 44.0958 44.2652 44.0958C29.7785 44.0958 21.9949 34.3752 23.2581 23.8744V23.8771Z" fill="white"/>
<path d="M44.2589 45.2883C36.8491 45.2883 30.5388 42.7728 26.4874 38.2031C22.9926 34.2609 21.4239 29.1237 22.0732 23.7355C22.1414 23.1571 22.8835 17.9653 27.4259 13.6057C31.2454 9.93896 36.4672 8.08105 42.9439 8.08105H42.9794C51.6741 8.08924 56.4785 11.6304 58.9775 14.5987C61.7085 17.8426 62.3387 21.0918 62.366 21.2283C63.1326 25.3096 63.7628 32.9622 59.3813 38.3532C55.7446 42.8247 50.3728 45.2883 44.2562 45.2883H44.2589ZM24.4331 24.0219C23.8656 28.7253 25.227 33.2023 28.2662 36.6289C31.8592 40.6803 37.5393 42.9147 44.2589 42.9147C49.6444 42.9147 54.3614 40.7622 57.5398 36.8554C61.3156 32.2093 60.7236 25.3451 60.0333 21.6675C59.946 21.2119 57.698 10.4764 42.9821 10.46H42.9494C37.1056 10.46 32.4376 12.097 29.0765 15.3244C25.8708 18.4018 24.6513 22.2404 24.4358 24.0247L24.4331 24.0219Z" fill="#0B100C"/>
<path d="M34.5517 32.3293C36.6988 34.6782 39.7489 36.0505 42.8454 36.6016C45.6936 37.1091 48.7738 37.0681 51.532 36.1269C52.7406 35.715 53.9628 35.1148 54.8331 34.1544C55.4415 33.4806 54.4457 32.4793 53.8346 33.1559C53.6818 33.3251 53.5181 33.4778 53.3435 33.6252C53.2971 33.6634 53.218 33.7261 53.3162 33.6497C53.2644 33.6906 53.2125 33.7288 53.158 33.7643C53.057 33.8352 52.9534 33.9062 52.847 33.9716C52.626 34.1108 52.3968 34.2363 52.1622 34.3509C52.0394 34.4109 51.9139 34.4682 51.7884 34.5227C51.7148 34.5555 51.7966 34.52 51.8075 34.5146C51.7775 34.5282 51.7475 34.5391 51.7175 34.5527C51.6466 34.58 51.5756 34.61 51.502 34.6373C50.9345 34.8528 50.3479 35.0193 49.7532 35.1502C49.4367 35.2212 49.1148 35.2784 48.7956 35.3276C48.531 35.3685 48.2472 35.4012 47.9035 35.4312C45.0661 35.6795 42.1279 35.2975 39.547 34.1462C38.0192 33.4642 36.6715 32.553 35.5502 31.3253C34.9363 30.6514 33.9378 31.6554 34.5517 32.3238V32.3293Z" fill="#0B100C"/>
<path d="M54.3315 28.1115C55.1316 28.1115 55.7802 27.2418 55.7802 26.169C55.7802 25.0962 55.1316 24.2266 54.3315 24.2266C53.5314 24.2266 52.8828 25.0962 52.8828 26.169C52.8828 27.2418 53.5314 28.1115 54.3315 28.1115Z" fill="#0B100C"/>
<path d="M41.4159 28.0215C42.2929 28.0215 43.0037 27.0919 43.0037 25.9453C43.0037 24.7987 42.2929 23.8691 41.4159 23.8691C40.539 23.8691 39.8281 24.7987 39.8281 25.9453C39.8281 27.0919 40.539 28.0215 41.4159 28.0215Z" fill="#0B100C"/>
<path d="M23.2562 23.8798C23.63 20.7806 26.9529 19.0536 29.5611 18.0933C33.6152 16.6037 38.1358 15.0568 42.43 15.0322C45.9958 15.0131 49.6188 15.4988 53.1191 16.3554L58.7474 14.4975C58.7474 13.4253 56.5293 2.00508 37.0964 5.31439C31.168 6.32382 26.7811 9.74499 24.724 12.7815C20.6781 18.759 22.6506 24.6328 23.1253 26.2506C23.1171 25.4676 23.1607 24.6737 23.2562 23.8771V23.8798Z" fill="#01B53B"/>
<path d="M23.1238 27.4402C22.6054 27.4402 22.1362 27.0992 21.9861 26.5863L21.9316 26.4035C21.3368 24.4119 19.5226 18.3471 23.7404 12.1159C25.8602 8.98391 30.4299 5.24355 36.8985 4.14136C45.3368 2.70632 51.7262 3.75941 55.8867 7.27606C59.2533 10.1216 59.9381 13.6982 59.9381 14.4976C59.9381 15.0105 59.608 15.4634 59.1224 15.6244L53.4941 17.4823C53.2813 17.5505 53.0549 17.5614 52.8393 17.5068C49.2681 16.6338 45.7597 16.1973 42.4394 16.2164C38.369 16.2382 34.0502 17.7032 29.9743 19.2037C26.534 20.4696 24.6707 22.0875 24.4388 24.0163C24.3487 24.7529 24.3078 25.5004 24.316 26.237C24.3215 26.8291 23.8904 27.3365 23.3038 27.4238C23.2438 27.432 23.1865 27.4375 23.1292 27.4375L23.1238 27.4402ZM43.5962 5.91196C41.6564 5.91196 39.5503 6.10293 37.294 6.48761C31.5594 7.4643 27.4671 10.8473 25.7047 13.45C23.9913 15.979 23.4566 18.4971 23.4184 20.6279C24.5916 19.171 26.5067 17.9515 29.1504 16.9803C33.4255 15.4088 37.9679 13.8728 42.4231 13.8483C45.8524 13.8319 49.4236 14.2575 53.0685 15.1251L57.4009 13.6955C57.0817 12.5742 56.2087 10.6099 54.2116 8.98118C51.7208 6.94867 48.1086 5.91469 43.5962 5.91469V5.91196Z" fill="#0B100C"/>
<path d="M61.2493 21.7025C62.7253 21.1214 70.7871 13.5888 64.766 12.1129C62.0269 11.4417 35.0532 7.43128 30.0715 13.5861C28.5955 15.4085 25.7118 18.9743 24.7188 21.1187C35.3478 17.6511 43.4287 15.4822 54.9308 18.1286C58.0246 18.8406 59.9425 20.101 61.2466 21.7025H61.2493Z" fill="#FA4215"/>
<path d="M60.8776 23.1268L60.3292 22.4529C59.0524 20.887 57.2545 19.883 54.6682 19.2882C43.4853 16.7155 35.6963 18.7917 25.0918 22.2511L22.5 23.0968L23.6458 20.6223C24.7044 18.3361 27.5963 14.7621 29.1513 12.8415C31.5031 9.93596 37.9498 8.67826 48.3115 9.10659C55.9368 9.42033 63.4721 10.5771 65.0517 10.9618C67.608 11.5865 68.0909 13.188 68.1537 14.0883C68.3883 17.5449 63.1256 22.2456 61.6879 22.8103L60.8803 23.1295L60.8776 23.1268ZM45.0977 15.7743C48.2597 15.7743 51.5717 16.1372 55.2029 16.972C57.8575 17.5831 59.9173 18.6335 61.4614 20.1694C62.9537 19.0072 65.9247 15.9407 65.7802 14.2274C65.7638 14.0474 65.7229 13.5727 64.487 13.2698C63.1611 12.9452 55.7486 11.7911 48.216 11.4801C35.669 10.9645 32.0432 13.0488 31.0011 14.3366C30.1117 15.436 28.6057 17.2966 27.3944 19.0209C33.5001 17.1193 39.0165 15.7743 45.1004 15.7743H45.0977Z" fill="#0B100C"/>
<path d="M11.1965 24.3352V25.5602C11.1965 25.762 10.9837 25.9339 10.7027 25.9585L0.853927 26.8124C0.398317 26.8506 0 26.5996 0 26.2722V23.6231C0 23.2957 0.401045 23.0448 0.853927 23.0829L10.7027 23.9369C10.9837 23.9614 11.1965 24.1333 11.1965 24.3352Z" fill="#0B100C"/>
<path d="M17.3059 36.0557V37.1934C17.3059 37.3816 17.1258 37.5398 16.8885 37.5644L8.5511 38.3583C8.16642 38.3938 7.82812 38.1591 7.82812 37.8563V35.3927C7.82812 35.0899 8.16642 34.8553 8.5511 34.8908L16.8885 35.6847C17.1286 35.7065 17.3059 35.8647 17.3059 36.053V36.0557Z" fill="#0B100C"/>
<path d="M14.7138 14.17L14.6729 15.3077C14.6674 15.4959 14.5037 15.6487 14.2937 15.6651L6.96843 16.1998C6.63014 16.2244 6.34095 15.9788 6.35186 15.676L6.43916 13.2152C6.45008 12.9123 6.75563 12.6886 7.0912 12.7377L14.3619 13.7908C14.5692 13.8208 14.722 13.9845 14.7138 14.1728V14.17Z" fill="#0B100C"/>
<path d="M97.9578 20.6714H90.9846C90.2479 20.6714 89.6505 21.2689 89.6505 22.0055V27.4864C89.6505 28.223 90.2479 28.8205 90.9846 28.8205H97.5159C96.0917 30.7794 93.7455 32.0289 91.121 31.9225C87.2224 31.7642 84.0686 28.605 83.9158 24.7091C83.7466 20.4258 87.1842 16.8874 91.432 16.8874C93.0689 16.8874 94.5858 17.4139 95.8244 18.306C96.2718 18.628 96.812 18.7944 97.3631 18.7944H104.255C105.269 18.7944 105.911 17.7086 105.425 16.8164C102.708 11.8156 97.3876 8.43268 91.2846 8.48997C82.5108 8.57182 75.4993 15.6651 75.5157 24.4418C75.5348 33.2184 82.6526 40.3253 91.4347 40.3253C100.217 40.3253 107.354 33.1993 107.354 24.4063C107.354 23.5142 107.277 22.6411 107.135 21.7899C107.029 21.1461 106.473 20.6714 105.818 20.6714H97.9578Z" fill="#0B100C"/>
<path d="M116.587 8.91309H110.342C109.605 8.91309 109.008 9.51038 109.008 10.2472V38.5659C109.008 39.3027 109.605 39.9 110.342 39.9H116.587C117.324 39.9 117.921 39.3027 117.921 38.5659V10.2472C117.921 9.51038 117.324 8.91309 116.587 8.91309Z" fill="#0B100C"/>
<path d="M128.039 10.2501V18.4483C128.039 19.185 127.441 19.7824 126.705 19.7824H121.131C120.394 19.7824 119.797 20.3799 119.797 21.1165V27.4459C119.797 28.1826 120.394 28.78 121.131 28.78H126.705C127.441 28.78 128.039 29.3775 128.039 30.1141V38.5661C128.039 39.3027 128.636 39.9002 129.373 39.9002H135.618C136.354 39.9002 136.952 39.3027 136.952 38.5661V10.2501C136.952 9.51349 136.354 8.91602 135.618 8.91602H129.373C128.636 8.91602 128.039 9.51349 128.039 10.2501Z" fill="#0B100C"/>
<path d="M152.424 8.91288H140.373C139.637 8.91288 139.039 9.51036 139.039 10.247V15.7689C139.039 16.5055 139.637 17.1029 140.373 17.1029H146.282C146.58 17.1029 146.842 16.9065 146.921 16.6228C147.734 13.7745 149.48 11.0545 152.571 9.53219C152.882 9.37941 152.77 8.91016 152.424 8.91016V8.91288Z" fill="#0B100C"/>
<path d="M188.664 8.91309H182.288C181.412 8.91309 180.591 9.34414 180.092 10.0644L174.467 18.1972C174.393 18.3035 174.224 18.2517 174.224 18.1208V10.2472C174.224 9.51056 173.626 8.91309 172.89 8.91309H159.666C153.378 8.91309 148.281 14.0094 148.281 20.2979V20.8708V38.5659C148.281 39.3025 148.879 39.9 149.615 39.9H155.435C156.171 39.9 156.769 39.3025 156.769 38.5659V20.1314C156.769 18.4618 158.122 17.1059 159.794 17.1059H164.645C165.013 17.1059 165.313 17.406 165.313 17.7743V38.5659C165.313 39.3025 165.911 39.9 166.647 39.9H172.892C173.629 39.9 174.226 39.3025 174.226 38.5659V30.6923C174.226 30.5614 174.396 30.5095 174.469 30.6159L180.095 38.7487C180.594 39.4689 181.415 39.9 182.291 39.9H188.667C189.742 39.9 190.377 38.6941 189.766 37.8075L181.576 25.9207C180.949 25.0095 180.949 23.8036 181.576 22.8924L189.766 11.0056C190.377 10.119 189.742 8.91309 188.667 8.91309H188.664Z" fill="#0B100C"/>
</g>
<defs>
<clipPath id="clip0_5914_22925">
<rect width="190" height="48.8157" fill="white"/>
</clipPath>
</defs>
</svg>